<svg id="レイヤー_1" xmlns="http://www.w3.org/2000/svg" viewBox="0 0 62 40"><style>.st0{fill:red}</style><path id="arrow.svg_1_" class="st0" d="M30.3 37.9L3.5 22.4 5 19.8l25.7 14.8 25.7-14.8 1.5 2.6-27.2 15.8"/><path class="st0" d="M7.4 3.8c-.8-.5-1.8-.9-2.8-.9-1.1 0-1.9.4-1.9 1.2 0 .7.9 1 2.1 1.2l.6.1c1.6.3 3 1 3 2.8 0 2.2-1.9 3.2-4.1 3.2-1.5 0-3.1-.4-4.2-1.3l1-1.6c.7.6 1.9 1.1 3.2 1.1 1.1 0 2-.4 2-1.2 0-.7-.7-.9-2.1-1.2l-.6-.1C1.8 6.8.6 6 .6 4.2.6 2.1 2.5 1 4.6 1c1.4 0 2.6.3 3.8 1.1l-1 1.7zm12.5-.5l-1.7 1c-.5-.8-1.4-1.3-2.5-1.3-1.8 0-3.1 1.3-3.1 3.3 0 2 1.4 3.3 3.1 3.3 1.1 0 2-.5 2.6-1.4l1.6 1.2c-.9 1.3-2.4 2.1-4.2 2.1-3.1 0-5.2-2.2-5.2-5.2s2.2-5.2 5.2-5.2c1.8 0 3.4.8 4.2 2.2zm6.7-2c2.4 0 3.7 1.1 3.7 3 0 1.6-1.1 2.8-3.1 2.9l3.1 4h-2.4l-2.9-4h-.6v4h-2v-10h4.2zm-2.2 1.8v2.4h2.2c1.1 0 1.6-.4 1.6-1.2 0-.8-.6-1.2-1.6-1.2h-2.2zm18.4 3.1c0 3-2.2 5.2-5.2 5.2-3.1 0-5.2-2.2-5.2-5.2S34.6 1 37.6 1c3 .1 5.2 2.3 5.2 5.2zm-8.4 0c0 1.9 1.3 3.3 3.2 3.3 1.8 0 3.2-1.3 3.2-3.3 0-1.9-1.3-3.3-3.2-3.3-1.9.1-3.2 1.4-3.2 3.3zm18.1 5h-7.3v-10h2v8.1h5.3v1.9zm9.3 0h-7.3v-10h2v8.1h5.3v1.9z"/></svg>
