<svg xmlns="http://www.w3.org/2000/svg" viewBox="0 0 176 46"><defs><style>.cls-1{fill:#fff;fill-rule:evenodd}</style></defs><path id="logo-nintendo.svg" class="cls-1" d="M319.613 67.231l-8.8-15.1h-6.358v21.648h6.32v-15.1l8.842 15.1h6.3V52.135h-6.309zm50.077-7.816v-2.142h-3.325v-2.912h-6.143v2.916h-3.339v2.137h3.337v14.367h6.149V59.414h3.325zm-40.259 14.367h6.138V59.389h-6.138v14.4zm-.015-17.227h6.153V52.13h-6.153v4.425zM436.99 58.4c-4.954 0-8.971 3.619-8.971 8.082s4.017 8.084 8.971 8.084 8.97-3.618 8.97-8.084-4.016-8.082-8.97-8.082zm2.46 11.111c0 2.3-1.277 3.244-2.508 3.244s-2.516-.948-2.516-3.244v-6.1c0-2.284 1.285-3.223 2.509-3.223s2.507.939 2.507 3.223c0 .871 0 2.485.006 3.064.006.036.002 2.179.002 3.041zM419.963 60.1a7.857 7.857 0 0 0-3.473-1.285c-4.423-.412-7.8 3.737-7.8 7.537a7.675 7.675 0 0 0 4.2 7.138 7.017 7.017 0 0 0 7.064-.542v.833h6.068V52.135h-6.057V60.1zm.043 6.411v2.554c0 2.224-1.452 2.806-2.408 2.806-.975 0-2.4-.582-2.4-2.806v-5.128c0-2.226 1.43-2.793 2.407-2.793.954 0 2.4.567 2.4 2.793l.001 2.574zm-70.068-7.788a7.188 7.188 0 0 0-4.895 2.171c-.006-.357 0-1.514 0-1.514h-6.1v14.395h6.093l-.006-9.454a2.893 2.893 0 0 1 2.914-2.649 2.785 2.785 0 0 1 2.8 2.649v9.459h6.1v-7.832a6.794 6.794 0 0 0-6.906-7.225zm49.879 0a7.188 7.188 0 0 0-4.894 2.171c-.007-.357 0-1.514 0-1.514h-6.09v14.395h6.093l-.006-9.454a2.893 2.893 0 0 1 2.914-2.649 2.785 2.785 0 0 1 2.8 2.649v9.459h6.1v-7.832a6.793 6.793 0 0 0-6.917-7.225zm-12.845 7.924c0-4.465-4.066-8.163-9.057-8.163s-9.037 3.619-9.037 8.082 4.046 8.083 9.037 8.083a8.966 8.966 0 0 0 8.708-5.906h-6.118v.874c0 2.632-1.633 3.217-2.539 3.217s-2.568-.585-2.568-3.217v-2.973s11.574.008 11.574.003zm-11.16-5.068a2.429 2.429 0 0 1 4.317 0 5.775 5.775 0 0 1 .4 2.826h-5.124a5.742 5.742 0 0 1 .407-2.826zm72.588-6.77c0-.706-.493-1.062-1.485-1.062h-1.365v3.691h.85v-1.512h.416l.664 1.511h.941l-.776-1.65a.972.972 0 0 0 .755-.978zm-1.589.576h-.411v-1.071h.372c.509 0 .76.164.76.55-.004.366-.232.521-.72.521zm.025-3.081a3.338 3.338 0 1 0 3.142 3.333 3.241 3.241 0 0 0-3.141-3.337zm0 6.027a2.7 2.7 0 1 1 2.54-2.694 2.621 2.621 0 0 1-2.539 2.694zM439.992 40H310c-13.758-.034-23 10.458-23 23.034s9.22 22.947 23.019 22.95h129.952c13.8 0 23.019-10.376 23.019-22.95S453.749 39.971 439.992 40zm-.063 40.346h-129.87c-10.966.041-17.63-7.766-17.63-17.344s6.7-17.324 17.63-17.345h129.87c10.926.022 17.629 7.766 17.629 17.345s-6.658 17.39-17.629 17.349z" transform="translate(-287 -40)"/></svg>