<?xml version="1.0" encoding="utf-8"?>
<!-- Generator: Adobe Illustrator 19.2.0, SVG Export Plug-In . SVG Version: 6.00 Build 0)  -->
<svg version="1.1" id="レイヤー_1" xmlns="http://www.w3.org/2000/svg" xmlns:xlink="http://www.w3.org/1999/xlink" x="0px"
	 y="0px" viewBox="0 0 62 40" style="enable-background:new 0 0 62 40;" xml:space="preserve">
<style type="text/css">
	.st0{fill:#FFFFFF;}
</style>
<path id="arrow.svg_1_" class="st0" d="M30.3,37.9L3.5,22.4L5,19.8l25.7,14.8l25.7-14.8l1.5,2.6L30.7,38.2"/>
<g>
	<path class="st0" d="M7.4,3.8C6.6,3.3,5.6,2.9,4.6,2.9c-1.1,0-1.9,0.4-1.9,1.2c0,0.7,0.9,1,2.1,1.2l0.6,0.1C7,5.7,8.4,6.4,8.4,8.2
		c0,2.2-1.9,3.2-4.1,3.2c-1.5,0-3.1-0.4-4.2-1.3l1-1.6c0.7,0.6,1.9,1.1,3.2,1.1c1.1,0,2-0.4,2-1.2c0-0.7-0.7-0.9-2.1-1.2L3.6,7.1
		c-1.8-0.3-3-1.1-3-2.9c0-2.1,1.9-3.2,4-3.2c1.4,0,2.6,0.3,3.8,1.1L7.4,3.8z"/>
	<path class="st0" d="M19.9,3.3l-1.7,1C17.7,3.5,16.8,3,15.7,3c-1.8,0-3.1,1.3-3.1,3.3c0,2,1.4,3.3,3.1,3.3c1.1,0,2-0.5,2.6-1.4
		l1.6,1.2c-0.9,1.3-2.4,2.1-4.2,2.1c-3.1,0-5.2-2.2-5.2-5.2s2.2-5.2,5.2-5.2C17.5,1.1,19.1,1.9,19.9,3.3z"/>
	<path class="st0" d="M26.6,1.3c2.4,0,3.7,1.1,3.7,3c0,1.6-1.1,2.8-3.1,2.9l3.1,4h-2.4l-2.9-4h-0.6v4h-2v-10H26.6z M24.4,3.1v2.4
		h2.2c1.1,0,1.6-0.4,1.6-1.2c0-0.8-0.6-1.2-1.6-1.2H24.4z"/>
	<path class="st0" d="M42.8,6.2c0,3-2.2,5.2-5.2,5.2c-3.1,0-5.2-2.2-5.2-5.2c0-3,2.2-5.2,5.2-5.2C40.6,1.1,42.8,3.3,42.8,6.2z
		 M34.4,6.2c0,1.9,1.3,3.3,3.2,3.3c1.8,0,3.2-1.3,3.2-3.3c0-1.9-1.3-3.3-3.2-3.3C35.7,3,34.4,4.3,34.4,6.2z"/>
	<path class="st0" d="M52.5,11.2h-7.3v-10h2v8.1h5.3V11.2z"/>
	<path class="st0" d="M61.8,11.2h-7.3v-10h2v8.1h5.3V11.2z"/>
</g>
</svg>
