<svg
   xmlns="http://www.w3.org/2000/svg"
   viewBox="0 0 1.552608 1.5759666"
   height="214.33145"
   width="294.99551"
   version="1.0">
  <g
     id="snes-logo-top"
     transform="matrix(5.3044703,0,0,5.3044573,1.9913688,-1.6090247)">
    <path
       id="path3324"
       style="font-style:normal;font-variant:normal;font-weight:normal;font-stretch:normal;letter-spacing:normal;word-spacing:normal;text-anchor:start;fill:#2cd324;fill-opacity:1;fill-rule:nonzero;stroke:#2cd324;stroke-width:0;stroke-linecap:butt;stroke-linejoin:miter;stroke-miterlimit:10.43299961;stroke-dasharray:none;stroke-dashoffset:0;stroke-opacity:1"
       d="m -0.35936512,0.41387702 6.771e-5,-0.001354 2.0139e-4,-0.001337 3.2986e-4,-0.001319 4.5659e-4,-0.001285 5.7986e-4,-0.001285 7.0138e-4,-0.00125 8.1597e-4,-0.001215 9.3055e-4,-0.001198 0.00104,-0.001163 0.001148,-0.001128 0.001252,-0.001111 0.001351,-0.001059 0.00145,-0.001042 0.001542,-9.8958e-4 0.001634,-9.5485e-4 0.00172,-9.2014e-4 0.001804,-8.6805e-4 0.001885,-8.3333e-4 0.001964,-7.8124e-4 0.002036,-7.2916e-4 0.002109,-6.7708e-4 0.002175,-6.4236e-4 0.002241,-5.7291e-4 0.0023,-5.3819e-4 0.002361,-4.6875e-4 0.002413,-4.1666e-4 0.002467,-3.4722e-4 0.002514,-2.9514e-4 0.002559,-2.2569e-4 0.002601,-1.7361e-4 0.002639,-1.0417e-4 0.002674,-3.472e-5 c 0.0287481,0 0.0520014,0.0117881 0.0520014,0.0263193 0,0.0145832 -0.0232603,0.0263193 -0.0520014,0.0263193 -0.0286995,0 -0.0519615,-0.0117361 -0.0519615,-0.0263193 z" />
    <path
       id="path3326"
       style="font-style:normal;font-variant:normal;font-weight:normal;font-stretch:normal;letter-spacing:normal;word-spacing:normal;text-anchor:start;fill:#f8fa1a;fill-opacity:1;fill-rule:nonzero;stroke:#f8fa1a;stroke-width:0;stroke-linecap:butt;stroke-linejoin:miter;stroke-miterlimit:10.43299961;stroke-dasharray:none;stroke-dashoffset:0;stroke-opacity:1"
       d="m -0.26329629,0.46260584 7.118e-5,-0.001422 2.1181e-4,-0.001405 3.4722e-4,-0.001384 4.7916e-4,-0.001361 6.0937e-4,-0.001337 7.3611e-4,-0.001313 8.5937e-4,-0.001285 9.7742e-4,-0.001255 0.001094,-0.001233 0.001207,-0.001181 0.001314,-0.001163 0.00142,-0.001128 0.001523,-0.001076 0.001622,-0.001042 0.001717,-0.001007 0.001807,-9.549e-4 0.001896,-9.201e-4 0.001983,-8.681e-4 0.002062,-8.159e-4 0.002141,-7.813e-4 0.002217,-7.1177e-4 0.002286,-6.7708e-4 0.002354,-6.0764e-4 0.002418,-5.5555e-4 0.002483,-4.861e-4 0.002535,-4.3403e-4 0.002587,-3.8194e-4 0.002656,-2.9514e-4 0.002691,-2.4305e-4 0.002726,-1.9097e-4 0.002778,-1.0417e-4 0.002812,-3.472e-5 c 0.030156,0 0.0546524,0.0123784 0.0546524,0.0276526 0,0.0152586 -0.0244964,0.0276492 -0.0546524,0.0276492 -0.0301717,0 -0.0546194,-0.0123836 -0.0546194,-0.0276492 z" />
    <path
       id="path3328"
       style="font-style:normal;font-variant:normal;font-weight:normal;font-stretch:normal;letter-spacing:normal;word-spacing:normal;text-anchor:start;fill:#0a12ff;fill-opacity:1;fill-rule:nonzero;stroke:#0a12ff;stroke-width:0;stroke-linecap:butt;stroke-linejoin:miter;stroke-miterlimit:10.43299961;stroke-dasharray:none;stroke-dashoffset:0;stroke-opacity:1"
       d="m -0.24089539,0.4020021 0.002451,-1.5625e-4 0.002418,-2.7777e-4 0.00238,-3.8195e-4 0.002342,-5.0347e-4 0.002297,-6.0763e-4 0.002257,-7.118e-4 0.002205,-8.3333e-4 0.002153,-9.2013e-4 0.002101,-0.001024 0.002049,-0.001111 0.001979,-0.001215 0.001927,-0.001285 0.001858,-0.001389 0.001788,-0.001476 0.001719,-0.001545 0.001632,-0.001615 0.00158,-0.001701 0.001476,-0.001788 0.001406,-0.00184 0.001319,-0.00191 0.001233,-0.001962 0.001128,-0.002031 0.001042,-0.002101 9.375e-4,-0.002135 8.5068e-4,-0.002205 7.4653e-4,-0.00224 6.2499e-4,-0.002292 5.3819e-4,-0.002344 4.1667e-4,-0.002378 2.9514e-4,-0.002413 1.7361e-4,-0.002448 6.944e-5,-0.002465 c 0,-0.0272394 -0.0221179,-0.0493573 -0.0493591,-0.0493573 -0.0270588,0 -0.0490379,0.021736 -0.0493573,0.0487497 6.3715e-4,-3.472e-5 0.001274,-3.472e-5 0.00196,-3.472e-5 0.0272342,0 0.0493573,0.0220658 0.0493573,0.0493573 l 0,5.9027e-4" />
    <path
       id="path3330"
       style="font-style:normal;font-variant:normal;font-weight:normal;font-stretch:normal;letter-spacing:normal;word-spacing:normal;text-anchor:start;fill:#fb0f19;fill-opacity:1;fill-rule:nonzero;stroke:#fb0f19;stroke-width:0;stroke-linecap:butt;stroke-linejoin:miter;stroke-miterlimit:10.43299961;stroke-dasharray:none;stroke-dashoffset:0;stroke-opacity:1"
       d="m -0.14487517,0.45076914 0.002396,-1.562e-4 0.002344,-2.605e-4 0.002326,-3.819e-4 0.002274,-4.861e-4 0.00224,-6.076e-4 0.002187,-6.945e-4 0.002153,-7.986e-4 0.002101,-9.028e-4 0.002049,-9.895e-4 0.001979,-0.001094 0.001944,-0.00118 0.001858,-0.00125 0.001806,-0.001354 0.001736,-0.001424 0.001684,-0.00151 0.001597,-0.00158 0.00151,-0.001667 0.001458,-0.001719 0.001354,-0.001806 0.001285,-0.001858 0.001198,-0.00191 0.001094,-0.001979 0.001024,-0.002049 9.2013e-4,-0.002083 8.1597e-4,-0.002135 7.118e-4,-0.002187 6.2499e-4,-0.00224 5.0347e-4,-0.002274 4.1667e-4,-0.002309 2.7777e-4,-0.002361 1.7361e-4,-0.002378 6.945e-5,-0.002413 c 0,-0.026545 -0.02147556,-0.0480726 -0.04803789,-0.0480726 -0.0263193,0 -0.047708,0.0211978 -0.0480205,0.0474823 6.25e-4,-3.472e-5 0.001267,-3.472e-5 0.00191,-3.472e-5 0.0264929,0 0.0480379,0.0215276 0.0480379,0.0480726 l 0,5.903e-4" />
  </g>
  <path
     d="m -0.20260383,1.041489 c -0.0204072,0 -0.0402442,0.016775 -0.0438883,0.037565 l 0,3.719e-4 0,3.719e-4 0,3.72e-4 -3.7189e-4,3.719e-4 0,7.439e-4 0,3.719e-4 -3.7193e-4,7.439e-4 0,7.438e-4 -3.7199e-4,7.44e-4 0,0.00112 -3.7194e-4,7.438e-4 0,0.00112 -3.7199e-4,0.00112 -3.7189e-4,0.00112 -3.7193e-4,0.00223 -7.4393e-4,0.0026 -3.7188e-4,0.0026 -7.4388e-4,0.0026 -3.7204e-4,0.00298 -7.4377e-4,0.00298 -7.4382e-4,0.00335 -7.4393e-4,0.00297 -0.001116,0.00632 -7.4387e-4,0.00335 -7.4387e-4,0.00298 -3.7194e-4,0.00298 -7.4393e-4,0.00298 -7.4387e-4,0.00298 -3.7189e-4,0.00297 -3.7199e-4,0.0026 -7.4382e-4,0.00223 -3.7204e-4,0.0026 0,0.00112 -3.7183e-4,7.439e-4 0,0.00112 0,7.439e-4 -3.7194e-4,0.00112 0,7.438e-4 0,7.439e-4 -3.7194e-4,7.439e-4 0,3.719e-4 0,3.72e-4 c -3.8367e-4,0.00909 8.8074e-4,0.021502 0.003719,0.023804 0.003606,0.020024 0.0703541,0.1127136 0.0684361,0.1268298 -0.001803,0.014155 -0.00967,0.05579 -0.00967,0.05579 -0.002417,0.01404 -0.0119958,0.025292 -0.0260354,0.025292 -0.0140395,0 -0.0236169,-0.011214 -0.0212004,-0.025292 l 0.0126458,-0.06918 -0.0498392,0 -0.0167371,0.095959 c -0.003414,0.019487 0.009781,0.034962 0.0293829,0.034962 l 0.0710397,0 c 0.0196784,0 0.0384229,-0.015475 0.0420287,-0.034962 0,0 0.0183016,-0.08963 0.0182248,-0.095959 -7.669e-5,-0.00637 -0.00186,-0.00707 -0.00186,-0.00707 0,-0.00729 -0.0593998,-0.1053328 -0.0654606,-0.108977 -0.002608,-0.00153 -0.004758,-0.01124 -0.004835,-0.017109 -1.1506e-4,-0.00583 0.007811,-0.045004 0.007811,-0.045004 0.002417,-0.01404 0.0157153,-0.025292 0.0297548,-0.025292 0.0140395,0 0.0198976,0.011252 0.017481,0.025292 l -0.0107862,0.062113 0.0502112,0 0.0174809,-0.093356 c 0.003951,-0.020791 -0.009348,-0.037565 -0.0297548,-0.037565 l -0.0736431,0 z m 0.13687206,0 -0.0595096,0.3429241 c -0.003414,0.019487 0.009781,0.034962 0.0293829,0.034962 l 0.0710397,0 c 0.0196784,0 0.0387564,-0.015475 0.0424006,-0.034962 l 0.0636009,-0.3429241 -0.0446322,0 -0.0606254,0.3332539 c -8.8231e-4,0.00483 -0.005581,0.00893 -0.0104142,0.00893 l -0.0353338,0 c -0.004948,0 -0.008244,-0.00405 -0.007439,-0.00893 l 0.0591377,-0.3332539 -0.0476078,0 z m 0.1710902,0 -0.0717834,0.3778861 0.0476077,0 0.0327303,-0.1710903 0.0606254,0 c 0.0197168,0 0.0384229,-0.01559 0.0420287,-0.034962 l 0.0260355,-0.1342685 c 0.003913,-0.020829 -0.009348,-0.037565 -0.0297548,-0.037565 l -0.0598816,0 -0.0476077,0 z m 0.16997435,0 -0.074387,0.3778861 0.10711731,0 0.007439,-0.046864 -0.0528148,0 0.0215722,-0.1275739 0.0528148,0 0.007439,-0.039425 -0.0528148,0 0.0234319,-0.1171595 0.0528148,0 0.007439,-0.046864 -0.10005054,0 z m 0.12794566,0 -0.0714115,0.3778861 0.0476077,0 0.0323584,-0.1710903 0.0338461,0 c 0.00445,0.00414 0.004965,0.011785 0.005579,0.015621 8.823e-4,0.00556 0.001806,0.012663 0.001116,0.018225 -6.1366e-4,0.00552 -0.0260355,0.1372442 -0.0260355,0.1372442 l 0.0476077,0 c 0,0 0.0267793,-0.1434971 0.0267793,-0.1457987 7.677e-5,-0.00234 4.88e-6,-0.00969 -0.002603,-0.013761 -0.001726,-0.00261 -0.00473,-0.0086 -0.008183,-0.010786 -0.006636,-0.00426 -0.0141335,-0.00707 -0.0141335,-0.00707 l -0.003347,0 c 0.0136176,-0.00537 0.0393051,-0.014216 0.0420287,-0.028639 l 0.0260354,-0.1342659 c 0.003951,-0.020829 -0.009348,-0.037565 -0.0297548,-0.037565 l -0.10748924,0 z m 0.25477552,0 -0.0717835,0.3778861 0.0546745,0 0.0442602,-0.2190698 0.0174809,0.2190698 0.0476077,0 0.0717835,-0.3778861 -0.0546745,0 -0.0371935,0.1974976 -0.0245477,-0.1974976 -0.0476077,0 z m 0.18894305,0 -0.0717835,0.3778861 0.0476077,0 0.0717835,-0.3778861 -0.0476077,0 z m 0.0725273,0 -0.0717834,0.3778861 0.0550464,0 0.04426,-0.2190698 0.017481,0.2190698 0.047608,0 0.071783,-0.3778861 -0.055046,0 -0.036822,0.1974976 -0.024548,-0.1974976 -0.04798,0 z m 0.18447979,0 -0.00893,0.046864 0.029755,0 -0.058766,0.3310223 0.054303,0 0.059882,-0.3310223 0.028639,0 0.00744,-0.046864 -0.1123244,0 z m 0.1309212,0 -0.074387,0.3778861 0.1071173,0 0.00744,-0.046864 -0.052815,0 0.021944,-0.1275739 0.052815,0 0.00744,-0.039425 -0.052815,0 0.02306,-0.1171595 0.052815,0 0.00744,-0.046864 -0.1000506,0 z m 0.1208789,0 -0.071784,0.3778861 0.055046,0 0.04426,-0.2190698 0.017481,0.2190698 0.047608,0 0.071783,-0.3778861 -0.055046,0 -0.036821,0.1974976 -0.024548,-0.1974976 -0.04798,0 z m 0.1893149,0 -0.071783,0.3778861 0.108605,0 c 0.019717,0 0.038757,-0.015475 0.042401,-0.034962 l 0.05765,-0.3053588 c 0.00391,-0.020829 -0.00935,-0.037565 -0.029755,-0.037565 l -0.1071173,0 z m 0.2041924,0 c -0.020407,-1e-7 -0.039872,0.016775 -0.043516,0.037565 l -0.053187,0.3053586 c -0.00345,0.019486 0.00945,0.034962 0.029011,0.034962 l 0.078478,0 c 0.019678,0 0.038756,-0.015475 0.042401,-0.034962 l 0.05765,-0.3053587 c 0.00395,-0.020791 -0.00939,-0.037565 -0.029755,-0.037565 l -0.081082,0 z m -0.1636514,0.043516 0.021944,0 c 0.01404,0 0.023617,0.011252 0.0212,0.025292 l -0.046864,0.2473368 c -0.00246,0.01404 -0.016087,0.025664 -0.030127,0.025664 l -0.021572,0 0.055418,-0.298292 z m 0.1915465,0 0.00149,0 c 0.01404,0 0.023245,0.011252 0.020828,0.025292 l -0.044632,0.2473368 c -0.00242,0.014001 -0.015343,0.025664 -0.029383,0.025664 -0.014039,1e-7 -0.019898,-0.011624 -0.017481,-0.025664 l 0.04426,-0.2473368 3.719e-4,-0.00112 3.719e-4,-0.00112 3.72e-4,-0.00149 3.719e-4,-0.00112 3.719e-4,-0.00149 3.719e-4,-0.00112 3.72e-4,-0.00112 7.438e-4,-0.00112 3.72e-4,-0.00112 7.438e-4,-0.00112 3.72e-4,-0.00112 7.438e-4,-0.00112 7.44e-4,-7.439e-4 7.439e-4,-0.00112 7.438e-4,-0.00112 0.00112,-7.438e-4 7.439e-4,-7.439e-4 7.438e-4,-7.439e-4 0.00112,-7.439e-4 0.00112,-7.438e-4 7.438e-4,-7.439e-4 0.00112,-7.439e-4 0.00112,-3.719e-4 0.00112,-7.439e-4 7.439e-4,-3.719e-4 0.00149,-3.72e-4 0.00112,-3.719e-4 0.00112,0 0.00112,-3.719e-4 0.00149,0 0.00112,-3.72e-4 z m -1.62610015,0.00149 0.02306,0 c 0.005064,-1e-7 0.0157981,0.011597 0.0148774,0.016737 l -0.0197126,0.093356 c -9.2067e-4,0.00483 -0.007441,0.015993 -0.0122739,0.015993 l -0.0278951,0 -3.7192e-4,0 -3.7196e-4,0 -3.7192e-4,-3.72e-4 -3.7193e-4,0 -3.7194e-4,0 -3.7194e-4,0 -3.7194e-4,0 0,-3.719e-4 -3.7192e-4,0 -3.7194e-4,0 -3.7194e-4,-3.719e-4 -3.7193e-4,0 -3.7194e-4,-3.72e-4 -3.7193e-4,-3.719e-4 -3.7194e-4,0 0,-3.719e-4 -3.7193e-4,-3.72e-4 -3.7193e-4,-3.719e-4 0,-3.719e-4 -3.7195e-4,-3.72e-4 -3.7193e-4,-3.719e-4 0,-3.719e-4 0,-3.72e-4 -3.7193e-4,-3.719e-4 0,-3.72e-4 0,-3.719e-4 -3.7193e-4,-3.719e-4 0,-3.72e-4 c -6e-8,-6.136e-4 -7.673e-5,-0.00154 0,-0.00223 l 0.0223161,-0.114184 c 0.002033,-0.00169 0.004535,-0.00297 0.007067,-0.00297 z m 0.29643227,0 3.7192e-4,0 3.7194e-4,0 3.7194e-4,0 3.7193e-4,0 0.0215722,0 c 0.005063,-1e-7 0.0158748,0.011597 0.0148774,0.016737 l -0.0197125,0.092984 c -8.8217e-4,0.00487 -0.0129813,0.016365 -0.0178529,0.016365 l -0.0204564,0 c -0.00422,0 -0.007132,-0.00278 -0.007439,-0.0067 0,-6.137e-4 -7.675e-5,-0.0015 0,-0.00223 l 0.0219442,-0.1141841 3.7193e-4,-3.72e-4 3.7193e-4,-3.719e-4 7.4388e-4,-3.719e-4 3.7193e-4,0 3.7193e-4,-3.719e-4 3.7194e-4,-3.72e-4 3.7194e-4,0 3.7192e-4,-3.719e-4 3.7195e-4,0 7.4386e-4,-3.719e-4 3.7194e-4,0 3.7193e-4,0 3.7195e-4,0 0,-3.719e-4 z m -0.75577212,0.3656122 0,0.1238544 2.1230054,0 0,-0.1238544 -2.1230054,0 z m 1.5606396,0.013018 3.719e-4,0 3.72e-4,0 3.719e-4,0 3.719e-4,0 3.719e-4,0 0.016365,0 c 0.00441,0 0.00758,0.00354 0.0067,0.00818 l -0.00409,0.020828 -0.010042,0 0.00223,-0.013762 c 4.987e-4,-0.00311 -0.00132,-0.00558 -0.00446,-0.00558 -0.00311,0 -0.00616,0.00245 -0.0067,0.00558 l -0.00186,0.010042 c -3.068e-4,5.985e-4 6.174e-4,0.00342 0.00112,0.00372 0.00138,7.941e-4 0.014505,0.022557 0.014505,0.024176 3.071e-4,8.093e-4 4.871e-4,0.00119 3.72e-4,0.00149 -3.838e-4,0.00273 -0.00409,0.0212 -0.00409,0.0212 -8.057e-4,0.00424 -0.00493,0.00781 -0.0093,0.00781 l -0.015621,0 c -0.00433,0 -0.00713,-0.00357 -0.00632,-0.00781 l 0.00372,-0.0212 0.010786,0 -0.0026,0.015249 c -4.988e-4,0.00311 0.00132,0.00595 0.00446,0.00595 0.00299,0 0.0062,-0.00282 0.0067,-0.00595 l 0.00223,-0.012274 c -0.00199,-0.00514 -0.015149,-0.023818 -0.015993,-0.028267 -5.752e-4,-4.95e-4 -8.205e-4,-0.00318 -7.439e-4,-0.00521 1.152e-4,-0.00222 0.00298,-0.015993 0.00298,-0.015993 l 3.719e-4,0 0,-3.719e-4 0,-3.719e-4 0,-3.72e-4 3.719e-4,-7.438e-4 0,-3.719e-4 3.72e-4,-3.72e-4 0,-3.72e-4 3.719e-4,-3.719e-4 0,-3.719e-4 3.719e-4,-3.719e-4 3.72e-4,-3.72e-4 0,-3.719e-4 3.719e-4,0 3.719e-4,-3.719e-4 3.72e-4,-3.72e-4 3.719e-4,-3.719e-4 0,-3.72e-4 3.719e-4,0 3.719e-4,-3.719e-4 3.72e-4,-3.719e-4 3.719e-4,0 3.72e-4,-3.72e-4 3.719e-4,0 3.72e-4,-3.719e-4 3.719e-4,0 7.439e-4,0 3.719e-4,-3.719e-4 z m 0.085545,0 0.01339,0 0.00186,0.031614 0.017109,-0.031614 0.01339,0 -0.027523,0.048352 -0.0067,0.035334 -0.011902,0 0.00595,-0.037937 -0.00558,-0.045748 z m 0.1216227,0 3.72e-4,0 3.72e-4,0 3.718e-4,0 3.72e-4,0 3.72e-4,0 0.016365,0 c 0.00441,0 0.0075,0.00354 0.0067,0.00818 l -0.00409,0.020828 -0.010042,0 0.00223,-0.013762 c 4.987e-4,-0.00311 -0.00132,-0.00558 -0.00446,-0.00558 -0.00311,0 -0.0062,0.00245 -0.0067,0.00558 l -0.00186,0.010042 c -3.834e-4,5.985e-4 5.022e-4,0.00342 0.00112,0.00372 0.00131,7.941e-4 0.014506,0.022557 0.014506,0.024176 3.834e-4,8.093e-4 3.72e-4,0.00119 3.72e-4,0.00149 -4.991e-4,0.00273 -0.00372,0.0212 -0.00372,0.0212 -8.057e-4,0.00424 -0.00496,0.00781 -0.0093,0.00781 l -0.015993,0 c -0.00433,0 -0.00713,-0.00357 -0.00632,-0.00781 l 0.00372,-0.0212 0.010786,0 -0.0026,0.015249 c -4.988e-4,0.00311 0.00143,0.00595 0.00446,0.00595 0.00311,0 0.00608,-0.00282 0.0067,-0.00595 l 0.00223,-0.012274 c -0.00203,-0.00514 -0.015149,-0.023818 -0.015993,-0.028267 -5.755e-4,-4.95e-4 -8.208e-4,-0.00318 -7.439e-4,-0.00521 1.151e-4,-0.00222 0.00298,-0.015993 0.00298,-0.015993 l 3.72e-4,-3.719e-4 0,-3.719e-4 0,-3.72e-4 3.72e-4,-7.438e-4 0,-3.719e-4 3.718e-4,-3.72e-4 0,-3.72e-4 3.72e-4,-3.719e-4 0,-3.719e-4 3.719e-4,-3.719e-4 3.72e-4,-3.72e-4 0,-3.719e-4 3.719e-4,0 3.719e-4,-3.719e-4 3.72e-4,-3.72e-4 3.718e-4,-3.719e-4 3.72e-4,-3.72e-4 3.719e-4,-3.719e-4 3.719e-4,-3.719e-4 3.72e-4,0 3.719e-4,-3.72e-4 3.72e-4,0 3.719e-4,-3.719e-4 3.719e-4,0 7.439e-4,0 3.719e-4,-3.719e-4 z m 0.086661,0 0.02492,0 -0.00186,0.010042 -0.00632,0 -0.013018,0.073643 -0.012274,0 0.013018,-0.073643 -0.00632,0 0.00186,-0.010042 z m 0.097447,0 0.022316,0 -0.00186,0.010042 -0.01153,0 -0.00521,0.026407 0.011902,0 -0.00186,0.00855 -0.01153,0 -0.00484,0.028267 0.01153,0 -0.00149,0.010414 -0.023804,0 0.016365,-0.083685 z m 0.091868,0 0.013762,0 0.00223,0.048352 0.0212,-0.04798 0.01339,-3.719e-4 -0.014133,0.083685 -0.010414,0 0.00669,-0.04426 -0.018597,0.04426 -0.00744,0 -0.00223,-0.045376 -0.00818,0.045376 -0.012274,0 0.015993,-0.083685 z m -1.99766314,0.00297 0.0219441,0 -0.001488,0.010414 -0.0119019,0 -0.004835,0.026035 0.01153,0 -0.001488,0.00893 -0.0119019,0 -0.004463,0.028267 0.01153,0 -0.00186,0.010414 -0.0238038,0 0.016737,-0.084057 z m 0.10265406,0 0.0104142,0 0.005579,0.043888 0.008183,-0.043888 0.0122739,0 -0.0159932,0.084057 -0.0104142,0 -0.004091,-0.048723 -0.00967,0.048723 -0.0122739,0 0.0159932,-0.084057 z m 0.11158055,0 0.0245477,0 -0.001488,0.010414 -0.006323,0 -0.0133898,0.073643 -0.0119019,0 0.0130177,-0.073643 -0.006695,0 0.002232,-0.010414 z m 0.10823315,0 0.0223161,0 -0.00186,0.010414 -0.01153,0 -0.005207,0.026035 0.01153,0 -0.001488,0.00893 -0.01153,0 -0.004835,0.028267 0.01153,0 -0.001488,0.010414 -0.0238039,0 0.0163652,-0.084057 z m 0.10488569,0 0.0238038,0 c 0.004411,-1e-7 0.007205,0.00391 0.006323,0.00855 l -0.005579,0.029755 c -6.1381e-4,0.00322 -0.006268,0.00585 -0.009298,0.00707 l 7.4386e-4,0 3.7194e-4,0 3.7194e-4,0 0,3.719e-4 3.7193e-4,0 3.7194e-4,0 3.7193e-4,0 3.7194e-4,0 3.7193e-4,3.719e-4 3.7193e-4,0 3.7194e-4,0 3.7194e-4,0 0,3.719e-4 3.7194e-4,0 3.7192e-4,0 0,3.72e-4 3.7194e-4,0 c 4.9868e-4,9.015e-4 7.4387e-4,0.00358 7.4387e-4,0.00409 0,4.947e-4 -0.005951,0.033102 -0.005951,0.033102 l -0.0107861,0 c 0,0 0.005759,-0.029283 0.005951,-0.030499 1.151e-4,-0.0013 -1.418e-4,-0.00287 -3.7194e-4,-0.00409 -7.671e-5,-8.975e-4 -1.1845e-4,-0.00243 -0.001116,-0.00335 l -0.007439,0 -0.007067,0.037937 -0.0107861,0 0.0159932,-0.084057 z m 0.10637343,0 0.0249196,0 -0.001488,0.010414 -0.006323,0 -0.0133897,0.073643 -0.0119019,0 0.0130177,-0.073643 -0.006695,0 0.00186,-0.010414 z m 0.12385438,0 0.0141335,0 -0.004463,0.084057 -0.0141335,0 0.00186,-0.019341 -0.008555,0 -0.007067,0.019341 -0.0126458,0 0.0308706,-0.084057 z m 0.0989347,0 0.0107861,0 -0.0159932,0.084057 -0.0104142,0 0.0156213,-0.084057 z m 0.0959593,0 0.0104142,0 0.005579,0.043888 0.008183,-0.043888 0.0119019,0 -0.0156213,0.084057 -0.0107861,0 -0.003719,-0.048723 -0.00967,0.048723 -0.0122739,0 0.0159932,-0.084057 z m 0.12311051,0 0.0137616,0 0.002232,0.048723 0.0212003,-0.048351 0.0133896,0 -0.0141335,0.083685 -0.0104141,0 0.006695,-0.04426 -0.0185967,0.04426 -0.007439,0 -0.002232,-0.045376 -0.008183,0.045376 -0.0119019,0 0.0156213,-0.084057 z m 0.13501241,0 0.0219442,0 -0.001488,0.010414 -0.0119019,0 -0.004835,0.026035 0.01153,0 -0.001488,0.00893 -0.0119019,0 -0.004835,0.028267 0.0119019,0 -0.00186,0.010414 -0.0234319,0 0.0163651,-0.084057 z m 0.10786117,0 0.010414,0 0.00558,0.043888 0.00818,-0.043888 0.011902,0 -0.015621,0.084057 -0.010414,0 -0.00409,-0.048723 -0.00967,0.048723 -0.012274,0 0.015993,-0.084057 z m 0.11046469,0 0.02492,0 -0.00186,0.010414 -0.00632,0 -0.013018,0.073643 -0.011902,0 0.013018,-0.073643 -0.00669,0 0.00186,-0.010414 z m -0.89152834,0.010042 c -5.753e-4,0 -0.001066,3.411e-4 -0.001488,7.439e-4 l -0.004835,0.025292 c 2e-8,1.955e-4 0,1.649e-4 0,3.719e-4 2e-8,8.093e-4 5.671e-4,0.00149 0.001488,0.00149 l 0.004463,0 c 0.001112,0 0.003899,-0.00224 0.004091,-0.00335 l 0.004091,-0.020828 c 1.9181e-4,-0.0012 -0.001863,-0.00372 -0.002975,-0.00372 l -0.004835,0 z m 0.22018556,0.025292 -0.007811,0.0212 0.005951,0 0.00186,-0.0212 z"
     style="font-style:normal;font-variant:normal;font-weight:normal;font-stretch:normal;letter-spacing:normal;word-spacing:normal;text-anchor:start;fill:#fc0c18;fill-opacity:1;fill-rule:nonzero;stroke:#fc0c18;stroke-width:0;stroke-linecap:butt;stroke-linejoin:miter;stroke-miterlimit:10.43299961;stroke-dasharray:none;stroke-dashoffset:0;stroke-opacity:1"
     id="snes-logo-bt" />
</svg>
