<svg xmlns="http://www.w3.org/2000/svg" viewBox="0 0 176 46">
  <defs>
    <style>
      .cls-1 {
        fill: #fff;
        fill-rule: evenodd;
      }
    </style>
  </defs>
  <path id="logo-nintendo.svg" class="cls-1" d="M319.613,67.231l-8.8-15.1h-6.358l0,21.648h6.32v-15.1l8.842,15.1h6.3V52.135h-6.309Zm50.077-7.816V57.273h-3.325V54.361h-6.143l0,2.916h-3.339v2.137h3.337l0,14.367h6.149l0-14.367h3.325ZM329.431,73.782h6.138V59.389l-6.138,0v14.4Zm-0.015-17.227h6.153V52.13h-6.153v4.425ZM436.99,58.4c-4.954,0-8.971,3.619-8.971,8.082s4.017,8.084,8.971,8.084,8.97-3.618,8.97-8.084S441.944,58.4,436.99,58.4Zm2.46,11.111c0,2.3-1.277,3.244-2.508,3.244s-2.516-.948-2.516-3.244c0-.871,0-3.1,0-3.1s0-2.13,0-3c0-2.284,1.285-3.223,2.509-3.223s2.507,0.939,2.507,3.223c0,0.871,0,2.485.006,3.064C439.454,66.511,439.45,68.654,439.45,69.516ZM419.963,60.1a7.857,7.857,0,0,0-3.473-1.285c-4.423-.412-7.8,3.737-7.8,7.537a7.675,7.675,0,0,0,4.2,7.138,7.017,7.017,0,0,0,7.064-.542c0,0.135,0,.833,0,0.833h6.068V52.135h-6.057V60.1Zm0.043,6.411s0,1.63,0,2.554c0,2.224-1.452,2.806-2.408,2.806-0.975,0-2.4-.582-2.4-2.806,0-.766,0-2.562,0-2.562s0-1.827,0-2.566c0-2.226,1.43-2.793,2.407-2.793,0.954,0,2.4.567,2.4,2.793C420.005,64.706,420.006,66.511,420.006,66.511Zm-70.068-7.788a7.188,7.188,0,0,0-4.895,2.171c-0.006-.357,0-1.514,0-1.514l-6.1,0,0,14.395h6.093s-0.006-8.841-.006-9.454a2.893,2.893,0,0,1,2.914-2.649,2.785,2.785,0,0,1,2.8,2.649V73.78h6.1s0-6.821,0-7.832A6.794,6.794,0,0,0,349.938,58.723Zm49.879,0a7.188,7.188,0,0,0-4.894,2.171c-0.007-.357,0-1.514,0-1.514l-6.09,0,0,14.395h6.093s-0.006-8.841-.006-9.454a2.893,2.893,0,0,1,2.914-2.649,2.785,2.785,0,0,1,2.8,2.649V73.78h6.1s0-6.821,0-7.832A6.793,6.793,0,0,0,399.817,58.723Zm-12.845,7.924c0-4.465-4.066-8.163-9.057-8.163s-9.037,3.619-9.037,8.082,4.046,8.083,9.037,8.083a8.966,8.966,0,0,0,8.708-5.906l-6.118,0s0,0.064,0,.874c0,2.632-1.633,3.217-2.539,3.217s-2.568-.585-2.568-3.217c0-.789,0-2.973,0-2.973S386.972,66.652,386.972,66.647Zm-11.16-5.068a2.429,2.429,0,0,1,4.317,0,5.775,5.775,0,0,1,.4,2.826h-5.124A5.742,5.742,0,0,1,375.812,61.579ZM448.4,54.809c0-.706-0.493-1.062-1.485-1.062h-1.365v3.691H446.4V55.926h0.416l0.664,1.511h0.941l-0.776-1.65A0.972,0.972,0,0,0,448.4,54.809Zm-1.589.576H446.4V54.314h0.372c0.509,0,.76.164,0.76,0.55C447.528,55.23,447.3,55.385,446.812,55.385Zm0.025-3.081a3.338,3.338,0,1,0,3.142,3.333A3.241,3.241,0,0,0,446.837,52.3Zm0,6.027a2.7,2.7,0,1,1,2.54-2.694A2.621,2.621,0,0,1,446.837,58.331ZM439.992,40H310c-13.758-.034-23,10.458-23,23.034s9.22,22.947,23.019,22.95H439.971c13.8,0,23.019-10.376,23.019-22.95S453.749,39.971,439.992,40Zm-0.063,40.346H310.059c-10.966.041-17.63-7.766-17.63-17.344s6.7-17.324,17.63-17.345h129.87c10.926,0.022,17.629,7.766,17.629,17.345S450.9,80.392,439.929,80.351Z" transform="translate(-287 -40)"/>
</svg>
