<svg xmlns="http://www.w3.org/2000/svg" viewBox="0 0 1.552608 1.5759666" height="214.331" width="294.996"><g transform="matrix(5.3044703 0 0 5.3044573 1.9913688 -1.6090247)"><path d="m-0.35936512 0.41387702 0.00006771-0.001354 0.00020139-0.001337 0.00032986-0.001319 0.00045659-0.001285 0.00057986-0.001285 0.00070138-0.00125 0.00081597-0.001215 0.00093055-0.001198 0.00104-0.001163 0.001148-0.001128 0.001252-0.001111 0.001351-0.001059 0.00145-0.001042 0.001542-0.00098958 0.001634-0.00095485 0.00172-0.00092014 0.001804-0.00086805 0.001885-0.00083333 0.001964-0.00078124 0.002036-0.00072916 0.002109-0.00067708 0.002175-0.00064236 0.002241-0.00057291 0.0023-0.00053819 0.002361-0.00046875 0.002413-0.00041666 0.002467-0.00034722 0.002514-0.00029514 0.002559-0.00022569 0.002601-0.00017361 0.002639-0.00010417 0.002674-0.00003472c0.0287481 0 0.0520014 0.0117881 0.0520014 0.0263193 0 0.0145832-0.0232603 0.0263193-0.0520014 0.0263193-0.0286995 0-0.0519615-0.0117361-0.0519615-0.0263193z" style="fill:#2cd324;letter-spacing:normal;word-spacing:normal"/><path d="m-0.26329629 0.46260584 0.00007118-0.001422 0.00021181-0.001405 0.00034722-0.001384 0.00047916-0.001361 0.00060937-0.001337 0.00073611-0.001313 0.00085937-0.001285 0.00097742-0.001255 0.001094-0.001233 0.001207-0.001181 0.001314-0.001163 0.00142-0.001128 0.001523-0.001076 0.001622-0.001042 0.001717-0.001007 0.001807-0.0009549 0.001896-0.0009201 0.001983-0.0008681 0.002062-0.0008159 0.002141-0.0007813 0.002217-0.00071177 0.002286-0.00067708 0.002354-0.00060764 0.002418-0.00055555 0.002483-0.0004861 0.002535-0.00043403 0.002587-0.00038194 0.002656-0.00029514 0.002691-0.00024305 0.002726-0.00019097 0.002778-0.00010417 0.002812-0.00003472c0.030156 0 0.0546524 0.0123784 0.0546524 0.0276526 0 0.0152586-0.0244964 0.0276492-0.0546524 0.0276492-0.0301717 0-0.0546194-0.0123836-0.0546194-0.0276492z" style="fill:#f8fa1a;letter-spacing:normal;word-spacing:normal"/><path d="m-0.24089539 0.4020021 0.002451-0.00015625 0.002418-0.00027777 0.00238-0.00038195 0.002342-0.00050347 0.002297-0.00060763 0.002257-0.0007118 0.002205-0.00083333 0.002153-0.00092013 0.002101-0.001024 0.002049-0.001111 0.001979-0.001215 0.001927-0.001285 0.001858-0.001389 0.001788-0.001476 0.001719-0.001545 0.001632-0.001615 0.00158-0.001701 0.001476-0.001788 0.001406-0.00184 0.001319-0.00191 0.001233-0.001962 0.001128-0.002031 0.001042-0.002101 0.0009375-0.002135 0.00085068-0.002205 0.00074653-0.00224 0.00062499-0.002292 0.00053819-0.002344 0.00041667-0.002378 0.00029514-0.002413 0.00017361-0.002448 0.00006944-0.002465c0-0.0272394-0.0221179-0.0493573-0.0493591-0.0493573-0.0270588 0-0.0490379 0.021736-0.0493573 0.0487497 0.00063715-0.00003472 0.001274-0.00003472 0.00196-0.00003472 0.0272342 0 0.0493573 0.0220658 0.0493573 0.0493573l0 0.00059027" style="fill:#0a12ff;letter-spacing:normal;word-spacing:normal"/><path d="m-0.14487517 0.45076914 0.002396-0.0001562 0.002344-0.0002605 0.002326-0.0003819 0.002274-0.0004861 0.00224-0.0006076 0.002187-0.0006945 0.002153-0.0007986 0.002101-0.0009028 0.002049-0.0009895 0.001979-0.001094 0.001944-0.00118 0.001858-0.00125 0.001806-0.001354 0.001736-0.001424 0.001684-0.00151 0.001597-0.00158 0.00151-0.001667 0.001458-0.001719 0.001354-0.001806 0.001285-0.001858 0.001198-0.00191 0.001094-0.001979 0.001024-0.002049 0.00092013-0.002083 0.00081597-0.002135 0.0007118-0.002187 0.00062499-0.00224 0.00050347-0.002274 0.00041667-0.002309 0.00027777-0.002361 0.00017361-0.002378 0.00006945-0.002413c0-0.026545-0.02147556-0.0480726-0.04803789-0.0480726-0.0263193 0-0.047708 0.0211978-0.0480205 0.0474823 0.000625-0.00003472 0.001267-0.00003472 0.00191-0.00003472 0.0264929 0 0.0480379 0.0215276 0.0480379 0.0480726l0 0.0005903" style="fill:#fb0f19;letter-spacing:normal;word-spacing:normal"/></g><path d="m-0.20260383 1.041489c-0.0204072 0-0.0402442 0.016775-0.0438883 0.037565l0 0.0003719 0 0.0003719 0 0.000372-0.00037189 0.0003719 0 0.0007439 0 0.0003719-0.00037193 0.0007439 0 0.0007438-0.00037199 0.000744 0 0.00112-0.00037194 0.0007438 0 0.00112-0.00037199 0.00112-0.00037189 0.00112-0.00037193 0.00223-0.00074393 0.0026-0.00037188 0.0026-0.00074388 0.0026-0.00037204 0.00298-0.00074377 0.00298-0.00074382 0.00335-0.00074393 0.00297-0.001116 0.00632-0.00074387 0.00335-0.00074387 0.00298-0.00037194 0.00298-0.00074393 0.00298-0.00074387 0.00298-0.00037189 0.00297-0.00037199 0.0026-0.00074382 0.00223-0.00037204 0.0026 0 0.00112-0.00037183 0.0007439 0 0.00112 0 0.0007439-0.00037194 0.00112 0 0.0007438 0 0.0007439-0.00037194 0.0007439 0 0.0003719 0 0.000372c-0.00038367 0.00909 0.00088074 0.021502 0.003719 0.023804 0.003606 0.020024 0.0703541 0.1127136 0.0684361 0.1268298-0.001803 0.014155-0.00967 0.05579-0.00967 0.05579-0.002417 0.01404-0.0119958 0.025292-0.0260354 0.025292-0.0140395 0-0.0236169-0.011214-0.0212004-0.025292l0.0126458-0.06918-0.0498392 0-0.0167371 0.095959c-0.003414 0.019487 0.009781 0.034962 0.0293829 0.034962l0.0710397 0c0.0196784 0 0.0384229-0.015475 0.0420287-0.034962 0 0 0.0183016-0.08963 0.0182248-0.095959-0.00007669-0.00637-0.00186-0.00707-0.00186-0.00707 0-0.00729-0.0593998-0.1053328-0.0654606-0.108977-0.002608-0.00153-0.004758-0.01124-0.004835-0.017109-0.00011506-0.00583 0.007811-0.045004 0.007811-0.045004 0.002417-0.01404 0.0157153-0.025292 0.0297548-0.025292 0.0140395 0 0.0198976 0.011252 0.017481 0.025292l-0.0107862 0.062113 0.0502112 0 0.0174809-0.093356c0.003951-0.020791-0.009348-0.037565-0.0297548-0.037565l-0.0736431 0zm0.13687206 0-0.0595096 0.3429241c-0.003414 0.019487 0.009781 0.034962 0.0293829 0.034962l0.0710397 0c0.0196784 0 0.0387564-0.015475 0.0424006-0.034962l0.0636009-0.3429241-0.0446322 0-0.0606254 0.3332539c-0.00088231 0.00483-0.005581 0.00893-0.0104142 0.00893l-0.0353338 0c-0.004948 0-0.008244-0.00405-0.007439-0.00893l0.0591377-0.3332539-0.0476078 0zm0.1710902 0-0.0717834 0.3778861 0.0476077 0 0.0327303-0.1710903 0.0606254 0c0.0197168 0 0.0384229-0.01559 0.0420287-0.034962l0.0260355-0.1342685c0.003913-0.020829-0.009348-0.037565-0.0297548-0.037565l-0.0598816 0-0.0476077 0zm0.16997435 0-0.074387 0.3778861 0.10711731 0 0.007439-0.046864-0.0528148 0 0.0215722-0.1275739 0.0528148 0 0.007439-0.039425-0.0528148 0 0.0234319-0.1171595 0.0528148 0 0.007439-0.046864-0.10005054 0zm0.12794566 0-0.0714115 0.3778861 0.0476077 0 0.0323584-0.1710903 0.0338461 0c0.00445 0.00414 0.004965 0.011785 0.005579 0.015621 0.0008823 0.00556 0.001806 0.012663 0.001116 0.018225-0.00061366 0.00552-0.0260355 0.1372442-0.0260355 0.1372442l0.0476077 0c0 0 0.0267793-0.1434971 0.0267793-0.1457987 0.00007677-0.00234 0.00000488-0.00969-0.002603-0.013761-0.001726-0.00261-0.00473-0.0086-0.008183-0.010786-0.006636-0.00426-0.0141335-0.00707-0.0141335-0.00707l-0.003347 0c0.0136176-0.00537 0.0393051-0.014216 0.0420287-0.028639l0.0260354-0.1342659c0.003951-0.020829-0.009348-0.037565-0.0297548-0.037565l-0.10748924 0zm0.25477552 0-0.0717835 0.3778861 0.0546745 0 0.0442602-0.2190698 0.0174809 0.2190698 0.0476077 0 0.0717835-0.3778861-0.0546745 0-0.0371935 0.1974976-0.0245477-0.1974976-0.0476077 0zm0.18894305 0-0.0717835 0.3778861 0.0476077 0 0.0717835-0.3778861-0.0476077 0zm0.0725273 0-0.0717834 0.3778861 0.0550464 0 0.04426-0.2190698 0.017481 0.2190698 0.047608 0 0.071783-0.3778861-0.055046 0-0.036822 0.1974976-0.024548-0.1974976-0.04798 0zm0.18447979 0-0.00893 0.046864 0.029755 0-0.058766 0.3310223 0.054303 0 0.059882-0.3310223 0.028639 0 0.00744-0.046864-0.1123244 0zm0.1309212 0-0.074387 0.3778861 0.1071173 0 0.00744-0.046864-0.052815 0 0.021944-0.1275739 0.052815 0 0.00744-0.039425-0.052815 0 0.02306-0.1171595 0.052815 0 0.00744-0.046864-0.1000506 0zm0.1208789 0-0.071784 0.3778861 0.055046 0 0.04426-0.2190698 0.017481 0.2190698 0.047608 0 0.071783-0.3778861-0.055046 0-0.036821 0.1974976-0.024548-0.1974976-0.04798 0zm0.1893149 0-0.071783 0.3778861 0.108605 0c0.019717 0 0.038757-0.015475 0.042401-0.034962l0.05765-0.3053588c0.00391-0.020829-0.00935-0.037565-0.029755-0.037565l-0.1071173 0zm0.2041924 0c-0.020407-1e-7-0.039872 0.016775-0.043516 0.037565l-0.053187 0.3053586c-0.00345 0.019486 0.00945 0.034962 0.029011 0.034962l0.078478 0c0.019678 0 0.038756-0.015475 0.042401-0.034962l0.05765-0.3053587c0.00395-0.020791-0.00939-0.037565-0.029755-0.037565l-0.081082 0zm-0.1636514 0.043516 0.021944 0c0.01404 0 0.023617 0.011252 0.0212 0.025292l-0.046864 0.2473368c-0.00246 0.01404-0.016087 0.025664-0.030127 0.025664l-0.021572 0 0.055418-0.298292zm0.1915465 0 0.00149 0c0.01404 0 0.023245 0.011252 0.020828 0.025292l-0.044632 0.2473368c-0.00242 0.014001-0.015343 0.025664-0.029383 0.025664-0.014039 1e-7-0.019898-0.011624-0.017481-0.025664l0.04426-0.2473368 0.0003719-0.00112 0.0003719-0.00112 0.000372-0.00149 0.0003719-0.00112 0.0003719-0.00149 0.0003719-0.00112 0.000372-0.00112 0.0007438-0.00112 0.000372-0.00112 0.0007438-0.00112 0.000372-0.00112 0.0007438-0.00112 0.000744-0.0007439 0.0007439-0.00112 0.0007438-0.00112 0.00112-0.0007438 0.0007439-0.0007439 0.0007438-0.0007439 0.00112-0.0007439 0.00112-0.0007438 0.0007438-0.0007439 0.00112-0.0007439 0.00112-0.0003719 0.00112-0.0007439 0.0007439-0.0003719 0.00149-0.000372 0.00112-0.0003719 0.00112 0 0.00112-0.0003719 0.00149 0 0.00112-0.000372zm-1.62610015 0.00149 0.02306 0c0.005064-1e-7 0.0157981 0.011597 0.0148774 0.016737l-0.0197126 0.093356c-0.00092067 0.00483-0.007441 0.015993-0.0122739 0.015993l-0.0278951 0-0.00037192 0-0.00037196 0-0.00037192-0.000372-0.00037193 0-0.00037194 0-0.00037194 0-0.00037194 0 0-0.0003719-0.00037192 0-0.00037194 0-0.00037194-0.0003719-0.00037193 0-0.00037194-0.000372-0.00037193-0.0003719-0.00037194 0 0-0.0003719-0.00037193-0.000372-0.00037193-0.0003719 0-0.0003719-0.00037195-0.000372-0.00037193-0.0003719 0-0.0003719 0-0.000372-0.00037193-0.0003719 0-0.000372 0-0.0003719-0.00037193-0.0003719 0-0.000372c-6e-8-0.0006136-0.00007673-0.00154 0-0.00223l0.0223161-0.114184c0.002033-0.00169 0.004535-0.00297 0.007067-0.00297zm0.29643227 0 0.00037192 0 0.00037194 0 0.00037194 0 0.00037193 0 0.0215722 0c0.005063-1e-7 0.0158748 0.011597 0.0148774 0.016737l-0.0197125 0.092984c-0.00088217 0.00487-0.0129813 0.016365-0.0178529 0.016365l-0.0204564 0c-0.00422 0-0.007132-0.00278-0.007439-0.0067 0-0.0006137-0.00007675-0.0015 0-0.00223l0.0219442-0.1141841 0.00037193-0.000372 0.00037193-0.0003719 0.00074388-0.0003719 0.00037193 0 0.00037193-0.0003719 0.00037194-0.000372 0.00037194 0 0.00037192-0.0003719 0.00037195 0 0.00074386-0.0003719 0.00037194 0 0.00037193 0 0.00037195 0 0-0.0003719zm-0.75577212 0.3656122 0 0.1238544 2.1230054 0 0-0.1238544-2.1230054 0zm1.5606396 0.013018 0.0003719 0 0.000372 0 0.0003719 0 0.0003719 0 0.0003719 0 0.016365 0c0.00441 0 0.00758 0.00354 0.0067 0.00818l-0.00409 0.020828-0.010042 0 0.00223-0.013762c0.0004987-0.00311-0.00132-0.00558-0.00446-0.00558-0.00311 0-0.00616 0.00245-0.0067 0.00558l-0.00186 0.010042c-0.0003068 0.0005985 0.0006174 0.00342 0.00112 0.00372 0.00138 0.0007941 0.014505 0.022557 0.014505 0.024176 0.0003071 0.0008093 0.0004871 0.00119 0.000372 0.00149-0.0003838 0.00273-0.00409 0.0212-0.00409 0.0212-0.0008057 0.00424-0.00493 0.00781-0.0093 0.00781l-0.015621 0c-0.00433 0-0.00713-0.00357-0.00632-0.00781l0.00372-0.0212 0.010786 0-0.0026 0.015249c-0.0004988 0.00311 0.00132 0.00595 0.00446 0.00595 0.00299 0 0.0062-0.00282 0.0067-0.00595l0.00223-0.012274c-0.00199-0.00514-0.015149-0.023818-0.015993-0.028267-0.0005752-0.000495-0.0008205-0.00318-0.0007439-0.00521 0.0001152-0.00222 0.00298-0.015993 0.00298-0.015993l0.0003719 0 0-0.0003719 0-0.0003719 0-0.000372 0.0003719-0.0007438 0-0.0003719 0.000372-0.000372 0-0.000372 0.0003719-0.0003719 0-0.0003719 0.0003719-0.0003719 0.000372-0.000372 0-0.0003719 0.0003719 0 0.0003719-0.0003719 0.000372-0.000372 0.0003719-0.0003719 0-0.000372 0.0003719 0 0.0003719-0.0003719 0.000372-0.0003719 0.0003719 0 0.000372-0.000372 0.0003719 0 0.000372-0.0003719 0.0003719 0 0.0007439 0 0.0003719-0.0003719zm0.085545 0 0.01339 0 0.00186 0.031614 0.017109-0.031614 0.01339 0-0.027523 0.048352-0.0067 0.035334-0.011902 0 0.00595-0.037937-0.00558-0.045748zm0.1216227 0 0.000372 0 0.000372 0 0.0003718 0 0.000372 0 0.000372 0 0.016365 0c0.00441 0 0.0075 0.00354 0.0067 0.00818l-0.00409 0.020828-0.010042 0 0.00223-0.013762c0.0004987-0.00311-0.00132-0.00558-0.00446-0.00558-0.00311 0-0.0062 0.00245-0.0067 0.00558l-0.00186 0.010042c-0.0003834 0.0005985 0.0005022 0.00342 0.00112 0.00372 0.00131 0.0007941 0.014506 0.022557 0.014506 0.024176 0.0003834 0.0008093 0.000372 0.00119 0.000372 0.00149-0.0004991 0.00273-0.00372 0.0212-0.00372 0.0212-0.0008057 0.00424-0.00496 0.00781-0.0093 0.00781l-0.015993 0c-0.00433 0-0.00713-0.00357-0.00632-0.00781l0.00372-0.0212 0.010786 0-0.0026 0.015249c-0.0004988 0.00311 0.00143 0.00595 0.00446 0.00595 0.00311 0 0.00608-0.00282 0.0067-0.00595l0.00223-0.012274c-0.00203-0.00514-0.015149-0.023818-0.015993-0.028267-0.0005755-0.000495-0.0008208-0.00318-0.0007439-0.00521 0.0001151-0.00222 0.00298-0.015993 0.00298-0.015993l0.000372-0.0003719 0-0.0003719 0-0.000372 0.000372-0.0007438 0-0.0003719 0.0003718-0.000372 0-0.000372 0.000372-0.0003719 0-0.0003719 0.0003719-0.0003719 0.000372-0.000372 0-0.0003719 0.0003719 0 0.0003719-0.0003719 0.000372-0.000372 0.0003718-0.0003719 0.000372-0.000372 0.0003719-0.0003719 0.0003719-0.0003719 0.000372 0 0.0003719-0.000372 0.000372 0 0.0003719-0.0003719 0.0003719 0 0.0007439 0 0.0003719-0.0003719zm0.086661 0 0.02492 0-0.00186 0.010042-0.00632 0-0.013018 0.073643-0.012274 0 0.013018-0.073643-0.00632 0 0.00186-0.010042zm0.097447 0 0.022316 0-0.00186 0.010042-0.01153 0-0.00521 0.026407 0.011902 0-0.00186 0.00855-0.01153 0-0.00484 0.028267 0.01153 0-0.00149 0.010414-0.023804 0 0.016365-0.083685zm0.091868 0 0.013762 0 0.00223 0.048352 0.0212-0.04798 0.01339-0.0003719-0.014133 0.083685-0.010414 0 0.00669-0.04426-0.018597 0.04426-0.00744 0-0.00223-0.045376-0.00818 0.045376-0.012274 0 0.015993-0.083685zm-1.99766314 0.00297 0.0219441 0-0.001488 0.010414-0.0119019 0-0.004835 0.026035 0.01153 0-0.001488 0.00893-0.0119019 0-0.004463 0.028267 0.01153 0-0.00186 0.010414-0.0238038 0 0.016737-0.084057zm0.10265406 0 0.0104142 0 0.005579 0.043888 0.008183-0.043888 0.0122739 0-0.0159932 0.084057-0.0104142 0-0.004091-0.048723-0.00967 0.048723-0.0122739 0 0.0159932-0.084057zm0.11158055 0 0.0245477 0-0.001488 0.010414-0.006323 0-0.0133898 0.073643-0.0119019 0 0.0130177-0.073643-0.006695 0 0.002232-0.010414zm0.10823315 0 0.0223161 0-0.00186 0.010414-0.01153 0-0.005207 0.026035 0.01153 0-0.001488 0.00893-0.01153 0-0.004835 0.028267 0.01153 0-0.001488 0.010414-0.0238039 0 0.0163652-0.084057zm0.10488569 0 0.0238038 0c0.004411-1e-7 0.007205 0.00391 0.006323 0.00855l-0.005579 0.029755c-0.00061381 0.00322-0.006268 0.00585-0.009298 0.00707l0.00074386 0 0.00037194 0 0.00037194 0 0 0.0003719 0.00037193 0 0.00037194 0 0.00037193 0 0.00037194 0 0.00037193 0.0003719 0.00037193 0 0.00037194 0 0.00037194 0 0 0.0003719 0.00037194 0 0.00037192 0 0 0.000372 0.00037194 0c0.00049868 0.0009015 0.00074387 0.00358 0.00074387 0.00409 0 0.0004947-0.005951 0.033102-0.005951 0.033102l-0.0107861 0c0 0 0.005759-0.029283 0.005951-0.030499 0.0001151-0.0013-0.0001418-0.00287-0.00037194-0.00409-0.00007671-0.0008975-0.00011845-0.00243-0.001116-0.00335l-0.007439 0-0.007067 0.037937-0.0107861 0 0.0159932-0.084057zm0.10637343 0 0.0249196 0-0.001488 0.010414-0.006323 0-0.0133897 0.073643-0.0119019 0 0.0130177-0.073643-0.006695 0 0.00186-0.010414zm0.12385438 0 0.0141335 0-0.004463 0.084057-0.0141335 0 0.00186-0.019341-0.008555 0-0.007067 0.019341-0.0126458 0 0.0308706-0.084057zm0.0989347 0 0.0107861 0-0.0159932 0.084057-0.0104142 0 0.0156213-0.084057zm0.0959593 0 0.0104142 0 0.005579 0.043888 0.008183-0.043888 0.0119019 0-0.0156213 0.084057-0.0107861 0-0.003719-0.048723-0.00967 0.048723-0.0122739 0 0.0159932-0.084057zm0.12311051 0 0.0137616 0 0.002232 0.048723 0.0212003-0.048351 0.0133896 0-0.0141335 0.083685-0.0104141 0 0.006695-0.04426-0.0185967 0.04426-0.007439 0-0.002232-0.045376-0.008183 0.045376-0.0119019 0 0.0156213-0.084057zm0.13501241 0 0.0219442 0-0.001488 0.010414-0.0119019 0-0.004835 0.026035 0.01153 0-0.001488 0.00893-0.0119019 0-0.004835 0.028267 0.0119019 0-0.00186 0.010414-0.0234319 0 0.0163651-0.084057zm0.10786117 0 0.010414 0 0.00558 0.043888 0.00818-0.043888 0.011902 0-0.015621 0.084057-0.010414 0-0.00409-0.048723-0.00967 0.048723-0.012274 0 0.015993-0.084057zm0.11046469 0 0.02492 0-0.00186 0.010414-0.00632 0-0.013018 0.073643-0.011902 0 0.013018-0.073643-0.00669 0 0.00186-0.010414zm-0.89152834 0.010042c-0.0005753 0-0.001066 0.0003411-0.001488 0.0007439l-0.004835 0.025292c2e-8 0.0001955 0 0.0001649 0 0.0003719 2e-8 0.0008093 0.0005671 0.00149 0.001488 0.00149l0.004463 0c0.001112 0 0.003899-0.00224 0.004091-0.00335l0.004091-0.020828c0.00019181-0.0012-0.001863-0.00372-0.002975-0.00372l-0.004835 0zm0.22018556 0.025292-0.007811 0.0212 0.005951 0 0.00186-0.0212z" style="fill:#fc0c18;letter-spacing:normal;word-spacing:normal"/></svg>